<?xml version="1.0" encoding="UTF-8"?>
<!DOCTYPE svg PUBLIC "-//W3C//DTD SVG 1.1//EN" "http://www.w3.org/Graphics/SVG/1.1/DTD/svg11.dtd">
<!-- Creator: CorelDRAW X8 -->
<svg xmlns="http://www.w3.org/2000/svg" xml:space="preserve" width="76.6879mm" height="19.2249mm" version="1.1" style="shape-rendering:geometricPrecision; text-rendering:geometricPrecision; image-rendering:optimizeQuality; fill-rule:evenodd; clip-rule:evenodd"
viewBox="0 0 4620 1158"
 xmlns:xlink="http://www.w3.org/1999/xlink">
 <defs>
  <style type="text/css">
   <![CDATA[
    .fil0 {fill:#15336B}
    .fil1 {fill:#FE340C}
    .fil2 {fill:#5C5456;fill-rule:nonzero}
   ]]>
  </style>
 </defs>
 <g id="Camada_x0020_1">
  <metadata id="CorelCorpID_0Corel-Layer"/>
  <path class="fil0" d="M1875 50c0,26 -16,39 -41,39l-192 0 0 673c0,27 -16,44 -45,44 -29,0 -45,-17 -45,-44l0 -673 -192 0c-25,0 -41,-13 -41,-39 0,-25 16,-38 41,-38l474 0c25,0 41,13 41,38l0 0zm2170 607c-10,-18 -4,-39 23,-53 24,-11 43,-2 53,12 46,74 118,115 206,115 122,0 206,-59 206,-146l0 -10c0,-231 -488,-33 -488,-342l0 -13c0,-131 115,-220 284,-220 126,0 223,54 266,146 11,21 2,44 -24,56 -27,10 -44,0 -56,-15 -39,-68 -103,-105 -188,-105 -117,0 -195,54 -195,136l0 7c0,232 488,31 488,344l0 14c0,136 -119,229 -295,229 -128,-2 -233,-56 -280,-155l0 0zm-251 -228l138 313c12,27 4,49 -23,58 -25,12 -47,2 -58,-23l-148 -342 -237 0 0 325c0,27 -16,44 -45,44 -29,0 -44,-17 -44,-44l0 -708c0,-25 15,-40 40,-40l315 0c128,0 216,81 216,204l0 19c0,101 -60,173 -154,194l0 0zm64 -209c0,-78 -54,-131 -132,-131l-260 0 0 268 260 0c78,0 132,-52 132,-130l0 -7zm-1208 318l0 -489c0,-28 16,-45 45,-45 29,0 44,17 44,45l0 483c0,119 78,199 197,199 116,0 194,-78 194,-199l0 -483c0,-28 15,-45 45,-45 29,0 44,17 44,45l0 489c0,163 -112,272 -281,272 -175,0 -288,-111 -288,-272zm-764 -31l0 -204c0,-181 127,-303 315,-303 189,0 317,120 317,303l0 204c0,181 -126,303 -317,303 -190,0 -315,-122 -315,-303zm543 -6l0 -190c0,-136 -90,-227 -228,-227 -136,0 -225,91 -225,227l0 190c0,136 89,228 225,228 136,0 228,-92 228,-228z"/>
  <path class="fil1" d="M2353 445c-14,0 -26,12 -26,25l0 20c0,62 -33,106 -85,120 -14,4 -27,6 -41,4 -13,0 -27,0 -41,-4 -52,-16 -85,-60 -85,-120l0 -20c0,-13 -12,-25 -25,-25 -14,0 -26,12 -26,25l0 22c0,101 70,169 175,169 0,0 0,0 0,0 0,0 0,0 0,0 105,0 175,-68 175,-169l0 -22c4,-13 -8,-25 -21,-25zm-1104 291c0,41 -23,62 -64,62l-423 0c-53,0 -82,-25 -82,-71l0 0c0,-37 16,-64 47,-88 239,-171 377,-287 377,-386l0 -4c0,-74 -55,-123 -137,-123 -52,0 -102,20 -143,78 -18,21 -53,31 -90,17 -38,-17 -48,-50 -31,-81 45,-93 152,-138 268,-138 166,0 276,93 276,235l0 14c0,147 -142,270 -365,427l303 -2c41,0 64,20 64,60l0 0zm-1249 -235l0 -188c0,-187 132,-311 330,-311 111,0 218,47 268,136 14,25 12,74 -33,89 -40,16 -70,-2 -85,-17 -45,-56 -101,-80 -150,-80 -110,0 -184,76 -184,193l0 171c0,112 74,188 186,188 62,0 117,-31 154,-84 19,-23 46,-33 83,-19 45,19 51,58 41,78 -47,103 -157,151 -278,151 -200,2 -332,-122 -332,-307l0 0z"/>
  <path class="fil2" d="M65 1158c40,0 67,-21 67,-52l0 -2c0,-71 -110,-26 -110,-78l0 -1c0,-19 17,-31 44,-31 19,0 34,8 42,24 3,3 7,5 13,3 6,-2 8,-8 5,-12 -10,-21 -32,-33 -60,-33 -38,0 -64,20 -64,49l0 3c0,70 110,25 110,77l0 2c0,20 -19,33 -47,33 -19,0 -35,-9 -46,-26 -2,-3 -6,-5 -12,-2 -6,3 -7,7 -5,11 11,23 34,35 63,35l0 0zm204 -20l-89 0 0 -64 82 0c6,0 9,-3 9,-9 0,-6 -3,-9 -9,-9l-82 0 0 -60 86 0c6,0 10,-3 10,-9 0,-6 -4,-9 -10,-9l-97 0c-5,0 -9,3 -9,9l0 160c0,6 4,9 9,9l100 0c6,0 9,-3 9,-9 0,-6 -3,-9 -9,-9zm100 20c39,0 64,-24 64,-61l0 -111c0,-6 -4,-10 -10,-10 -7,0 -10,4 -10,10l0 110c0,26 -18,44 -44,44 -26,0 -44,-18 -44,-44l0 -110c0,-6 -3,-10 -10,-10 -6,0 -10,4 -10,10l0 111c0,37 26,61 64,61l0 0zm278 -182c-7,0 -10,4 -10,11l1 140 -88 -144c-2,-4 -6,-6 -12,-6l-1 0c-8,0 -13,5 -13,13l0 157c0,7 3,10 10,10 6,0 10,-3 10,-10l-1 -139 88 143c2,4 6,6 11,6l2 0c8,0 13,-5 13,-13l0 -158c0,-6 -4,-10 -10,-10zm112 182c43,0 71,-27 71,-68l0 -46c0,-41 -28,-68 -71,-68 -43,0 -71,27 -71,68l0 46c0,41 28,68 71,68zm0 -18c-31,0 -51,-21 -51,-51l0 -44c0,-31 20,-51 51,-51 31,0 51,20 51,51l0 44c0,30 -20,51 -51,51zm223 -163c-7,-2 -11,1 -13,7l-52 152 -53 -152c-1,-6 -6,-9 -12,-7 -6,2 -8,6 -6,13l53 153c3,9 9,14 17,14l2 0c8,0 14,-5 17,-14l53 -153c2,-7 0,-11 -6,-13l0 0zm93 181c42,0 71,-27 71,-68l0 -46c0,-41 -29,-68 -71,-68 -43,0 -72,27 -72,68l0 46c0,41 29,68 72,68zm0 -18c-31,0 -51,-21 -51,-51l0 -44c0,-31 20,-51 51,-51 30,0 51,20 51,51l0 44c0,30 -21,51 -51,51zm193 18c36,0 59,-23 59,-57l0 -115c0,-6 -4,-10 -10,-10 -6,0 -10,4 -10,10l0 114c0,24 -16,40 -39,40 -17,0 -30,-10 -37,-29 -2,-4 -6,-7 -11,-5 -6,3 -8,9 -6,13 9,25 29,39 54,39l0 0zm204 -20l-88 0 0 -64 81 0c6,0 9,-3 9,-9 0,-6 -3,-9 -9,-9l-81 0 0 -60 86 0c6,0 9,-3 9,-9 0,-6 -3,-9 -9,-9l-97 0c-6,0 -9,3 -9,9l0 160c0,6 3,9 9,9l99 0c6,0 9,-3 9,-9 0,-6 -3,-9 -9,-9zm48 19c6,0 10,-3 10,-10l0 -161c0,-6 -4,-10 -10,-10 -7,0 -10,4 -10,10l0 161c0,7 3,10 10,10zm149 -179l-107 0c-6,0 -9,3 -9,9 0,6 3,9 9,9l43 0 0 151c0,7 4,10 10,10 7,0 10,-3 10,-10l0 -151 44 0c6,0 9,-3 9,-9 0,-6 -3,-9 -9,-9zm90 180c43,0 72,-27 72,-68l0 -46c0,-41 -29,-68 -72,-68 -42,0 -71,27 -71,68l0 46c0,41 29,68 71,68zm0 -18c-30,0 -51,-21 -51,-51l0 -44c0,-31 21,-51 51,-51 31,0 52,20 52,51l0 44c0,30 -21,51 -52,51zm167 16l52 0c42,0 70,-27 70,-68l0 -42c0,-41 -28,-68 -70,-68l-52 0c-6,0 -10,3 -10,9l0 160c0,6 4,9 10,9zm11 -18l0 -142 40 0c30,0 50,20 50,51l0 40c0,31 -20,51 -50,51l-40 0zm250 0l-88 0 0 -64 81 0c6,0 10,-3 10,-9 0,-6 -4,-9 -10,-9l-81 0 0 -60 86 0c6,0 9,-3 9,-9 0,-6 -3,-9 -9,-9l-97 0c-6,0 -9,3 -9,9l0 160c0,6 3,9 9,9l99 0c6,0 9,-3 9,-9 0,-6 -3,-9 -9,-9l0 0zm211 -161c-7,-2 -11,1 -13,7l-52 152 -53 -152c-2,-6 -6,-9 -12,-7 -6,2 -9,6 -6,13l53 153c3,9 9,14 17,14l2 0c8,0 14,-5 17,-14l53 -153c2,-7 0,-11 -6,-13l0 0zm42 180c6,0 10,-3 10,-10l0 -161c0,-6 -4,-10 -10,-10 -7,0 -10,4 -10,10l0 161c0,7 3,10 10,10zm171 -180c-6,-2 -10,1 -12,7l-52 152 -53 -152c-2,-6 -6,-9 -12,-7 -6,2 -9,6 -7,13l53 153c3,9 10,14 18,14l1 0c8,0 14,-5 18,-14l53 -153c2,-7 -1,-11 -7,-13l0 0zm141 161l-88 0 0 -64 81 0c6,0 9,-3 9,-9 0,-6 -3,-9 -9,-9l-81 0 0 -60 85 0c6,0 10,-3 10,-9 0,-6 -4,-9 -10,-9l-96 0c-6,0 -10,3 -10,9l0 160c0,6 4,9 10,9l99 0c6,0 9,-3 9,-9 0,-6 -3,-9 -9,-9zm166 -110l0 -4c0,-28 -19,-46 -48,-46l-71 0c-6,0 -10,3 -10,9l0 160c0,7 4,10 11,10 6,0 10,-3 10,-10l0 -73 53 0 33 77c3,6 8,8 13,5 6,-2 8,-7 6,-13l-32 -71c22,-4 35,-21 35,-44l0 0zm-20 -1c0,18 -12,29 -30,29l-58 0 0 -60 58 0c18,0 30,12 30,29l0 2zm212 111l-88 0 0 -64 81 0c6,0 9,-3 9,-9 0,-6 -3,-9 -9,-9l-81 0 0 -60 86 0c6,0 9,-3 9,-9 0,-6 -3,-9 -9,-9l-97 0c-6,0 -9,3 -9,9l0 160c0,6 3,9 9,9l99 0c6,0 9,-3 9,-9 0,-6 -3,-9 -9,-9l0 0zm160 4l-54 -76 53 -74c3,-5 2,-10 -3,-14 -5,-3 -10,-2 -13,4l-49 70 -49 -70c-4,-6 -8,-7 -14,-4 -5,4 -6,8 -2,14l52 73 -54 77c-3,5 -2,10 3,13 5,4 10,3 13,-3l51 -73 50 73c4,5 8,7 13,3 6,-3 7,-8 3,-13l0 0zm108 -164l-72 0c-5,0 -9,3 -9,9l0 160c0,7 4,10 10,10 7,0 10,-3 10,-10l0 -73 61 0c28,0 48,-18 48,-46l0 -4c0,-28 -20,-46 -48,-46l0 0zm28 49c0,18 -12,29 -30,29l-59 0 0 -60 59 0c18,0 30,12 30,29l0 2zm154 111l-88 0 0 -64 81 0c6,0 9,-3 9,-9 0,-6 -3,-9 -9,-9l-81 0 0 -60 85 0c7,0 10,-3 10,-9 0,-6 -3,-9 -10,-9l-96 0c-6,0 -10,3 -10,9l0 160c0,6 4,9 10,9l99 0c6,0 9,-3 9,-9 0,-6 -3,-9 -9,-9zm166 -110l0 -4c0,-28 -19,-46 -48,-46l-71 0c-6,0 -9,3 -9,9l0 160c0,7 3,10 10,10 6,0 10,-3 10,-10l0 -73 53 0 33 77c3,6 8,8 13,5 6,-2 8,-7 6,-13l-31 -71c21,-4 34,-21 34,-44l0 0zm-20 -1c0,18 -12,29 -29,29l-59 0 0 -60 59 0c17,0 29,12 29,29l0 2zm59 130c7,0 10,-3 10,-10l0 -161c0,-6 -3,-10 -10,-10 -6,0 -10,4 -10,10l0 161c0,7 4,10 10,10zm80 -190l25 -19 25 19c3,2 6,2 8,-1 3,-3 2,-5 -1,-8l-27 -25c-2,-2 -3,-2 -5,-2 -1,0 -3,0 -4,2l-28 25c-3,3 -4,5 -1,9 2,2 5,2 8,0l0 0zm76 171l-88 0 0 -64 81 0c6,0 10,-3 10,-9 0,-6 -4,-9 -10,-9l-81 0 0 -60 86 0c6,0 9,-3 9,-9 0,-6 -3,-9 -9,-9l-97 0c-6,0 -9,3 -9,9l0 160c0,6 3,9 9,9l99 0c6,0 9,-3 9,-9 0,-6 -3,-9 -9,-9l0 0zm161 -162c-6,0 -10,4 -10,11l1 140 -88 -144c-2,-4 -6,-6 -12,-6l-1 0c-8,0 -13,5 -13,13l0 157c0,7 4,10 10,10 6,0 10,-3 10,-10l-1 -139 88 143c2,4 6,6 11,6l2 0c8,0 13,-5 13,-13l0 -158c0,-6 -4,-10 -10,-10zm111 182c28,0 51,-13 62,-37 1,-4 0,-9 -6,-12 -6,-2 -10,0 -13,4 -7,15 -23,27 -43,27 -30,0 -50,-20 -50,-50l0 -44c0,-31 20,-52 50,-52 17,0 33,9 43,26 2,3 6,6 12,4 6,-2 7,-9 5,-13 -10,-21 -33,-35 -60,-35 -42,0 -70,27 -70,69l0 46c0,40 28,67 70,67zm100 -1c6,0 10,-3 10,-10l0 -161c0,-6 -4,-10 -10,-10 -7,0 -10,4 -10,10l0 161c0,7 3,10 10,10zm182 -13l-56 -155c-2,-8 -8,-12 -16,-12l-3 0c-8,0 -14,4 -16,12l-56 155c-2,7 1,11 7,13 6,2 10,-1 12,-7l14 -38 81 0 14 38c2,6 6,9 12,7 7,-2 9,-6 7,-13l0 0zm-108 -50l34 -98 35 98 -69 0 0 0zm186 64c40,0 67,-21 67,-52l0 -2c0,-71 -110,-26 -110,-78l0 -1c0,-19 18,-31 44,-31 19,0 34,8 43,24 2,3 6,5 12,3 6,-2 8,-8 5,-12 -9,-21 -31,-33 -60,-33 -38,0 -64,20 -64,49l0 3c0,70 110,25 110,77l0 2c0,20 -19,33 -46,33 -20,0 -36,-9 -47,-26 -2,-3 -6,-5 -11,-2 -7,3 -8,7 -6,11 11,23 34,35 63,35l0 0z"/>
 </g>
</svg>
