<svg xmlns="http://www.w3.org/2000/svg" xmlns:svg="http://www.w3.org/2000/svg" width="45.1" height="70.9">
 <style type="text/css">.st0{fill:#FE340C;}
	.st1{fill:#ffffff;}
	.st2{fill:#5C5456;}</style>
 <g class="layer">
  <title>Layer 1</title>
  <path class="st1" d="m7.3,40.7l0,-10.5c0,-9.3 6.5,-15.6 16.2,-15.6s16.3,6.2 16.3,15.6l0,10.5c0,9.3 -6.5,15.6 -16.3,15.6s-16.2,-6.3 -16.2,-15.6zm27.9,-0.3l0,-9.8c0,-7 -4.6,-11.7 -11.7,-11.7c-7,0 -11.6,4.7 -11.6,11.7l0,9.8c0,7 4.6,11.7 11.6,11.7c7,0 11.7,-4.7 11.7,-11.7z" fill="black" id="svg_4"/>
  <path class="st0" d="m31.3,37.5c-0.7,0 -1.3,0.6 -1.3,1.3l0,1c0,3.2 -1.7,5.5 -4.4,6.2c-0.7,0.2 -1.4,0.3 -2.1,0.2c-0.7,0 -1.4,0 -2.1,-0.2c-2.7,-0.8 -4.4,-3.1 -4.4,-6.2l0,-1c0,-0.7 -0.6,-1.3 -1.3,-1.3s-1.3,0.6 -1.3,1.3l0,1.1c0,5.2 3.6,8.7 9,8.7c0,0 0,0 0,0c0,0 0,0 0,0c5.4,0 9,-3.5 9,-8.7l0,-1.1c0.2,-0.7 -0.4,-1.3 -1.1,-1.3z" fill="black" id="svg_33"/>
 </g>
</svg>