<svg xmlns="http://www.w3.org/2000/svg" width="20" height="21" viewBox="0 0 20 21">
  <path id="Vector" d="M19.5,12.332l-1.366-.8a8.351,8.351,0,0,0,0-2.07l1.366-.8A1.018,1.018,0,0,0,19.959,7.5a10.509,10.509,0,0,0-2.41-4.217,1,1,0,0,0-1.233-.181l-1.364.8a8.111,8.111,0,0,0-1.774-1.036V1.272A1.015,1.015,0,0,0,12.4.283,10.354,10.354,0,0,0,7.6.283a1.015,1.015,0,0,0-.774.989V2.865A8.11,8.11,0,0,0,5.048,3.9l-1.364-.8a1,1,0,0,0-1.233.181A10.509,10.509,0,0,0,.041,7.5,1.018,1.018,0,0,0,.5,8.668l1.366.8a8.351,8.351,0,0,0,0,2.07l-1.366.8A1.018,1.018,0,0,0,.041,13.5a10.509,10.509,0,0,0,2.41,4.217,1,1,0,0,0,1.233.181l1.364-.8a8.109,8.109,0,0,0,1.774,1.036v1.593a1.015,1.015,0,0,0,.774.989,10.354,10.354,0,0,0,4.808,0,1.015,1.015,0,0,0,.774-.989V18.135A8.112,8.112,0,0,0,14.952,17.1l1.364.8a1,1,0,0,0,1.233-.181,10.509,10.509,0,0,0,2.41-4.217,1.018,1.018,0,0,0-.463-1.164Zm-2.743,4.253-1.94-1.132a7.22,7.22,0,0,1-2.976,1.738v2.264a9,9,0,0,1-3.675,0V17.192a7.221,7.221,0,0,1-2.976-1.738l-1.94,1.132a9.169,9.169,0,0,1-1.84-3.216l1.941-1.132a7.454,7.454,0,0,1,0-3.475L1.407,7.63a9.176,9.176,0,0,1,1.84-3.216l1.94,1.133A7.21,7.21,0,0,1,8.162,3.808V1.544a8.987,8.987,0,0,1,3.675,0V3.808a7.21,7.21,0,0,1,2.976,1.739l1.94-1.133a9.175,9.175,0,0,1,1.84,3.216L16.653,8.762a7.453,7.453,0,0,1,0,3.475l1.941,1.132a9.169,9.169,0,0,1-1.84,3.216ZM10,6.435A4.065,4.065,0,1,0,14.021,10.5,4.048,4.048,0,0,0,10,6.435Zm0,6.774a2.71,2.71,0,1,1,2.681-2.71A2.7,2.7,0,0,1,10,13.21Z" fill="#fff"/>
</svg>
