<svg xmlns="http://www.w3.org/2000/svg" width="22" height="17" viewBox="0 0 22 17">
  <path id="Vector" d="M11,4.554a.911.911,0,1,0-.917-.911A.913.913,0,0,0,11,4.554Zm-5.194.3a.911.911,0,1,0,.917.911A.913.913,0,0,0,5.806,4.857Zm10.389,0a.911.911,0,1,0,.917.911A.913.913,0,0,0,16.194,4.857Zm2.139,5.161a.911.911,0,1,0,.917.911A.913.913,0,0,0,18.333,10.018ZM11,0A10.964,10.964,0,0,0,0,10.929a10.818,10.818,0,0,0,1.492,5.495A1.21,1.21,0,0,0,2.54,17H19.46a1.21,1.21,0,0,0,1.048-.577A10.818,10.818,0,0,0,22,10.929,10.964,10.964,0,0,0,11,0Zm8.46,15.786-16.913.026a9.654,9.654,0,0,1-1.325-4.883,9.778,9.778,0,0,1,19.556,0A9.559,9.559,0,0,1,19.46,15.786ZM3.667,10.018a.911.911,0,1,0,.917.911A.913.913,0,0,0,3.667,10.018ZM13.949,3.676a.618.618,0,0,0-.777.375l-1.98,5.682c-.065,0-.126-.019-.192-.019a2.442,2.442,0,1,0,1.351.406l1.976-5.672A.607.607,0,0,0,13.949,3.676ZM11,13.357a1.214,1.214,0,1,1,1.222-1.214A1.22,1.22,0,0,1,11,13.357Z" fill="#fff"/>
</svg>
