<svg xmlns="http://www.w3.org/2000/svg" width="10" height="19" viewBox="0 0 10 19">
  <path id="Vector" d="M7.5,9.622,2.879,8.246a2.377,2.377,0,0,1-1.629-2.3A2.313,2.313,0,0,1,3.477,3.563H6.359a3.49,3.49,0,0,1,2.348.909.326.326,0,0,0,.43.011l.465-.4a.288.288,0,0,0,.016-.43,4.841,4.841,0,0,0-3.254-1.28H5.625V.3A.306.306,0,0,0,5.313,0H4.688a.306.306,0,0,0-.312.3V2.375h-.9A3.529,3.529,0,0,0,0,5.949,3.574,3.574,0,0,0,2.5,9.378l4.617,1.377a2.372,2.372,0,0,1,1.629,2.3,2.315,2.315,0,0,1-2.227,2.386H3.641a3.49,3.49,0,0,1-2.348-.909.326.326,0,0,0-.43-.011l-.461.4a.284.284,0,0,0-.012.427,4.841,4.841,0,0,0,3.254,1.28h.73V18.7a.306.306,0,0,0,.313.3h.625a.306.306,0,0,0,.313-.3V16.625h.9A3.529,3.529,0,0,0,10,13.051,3.581,3.581,0,0,0,7.5,9.622Z" fill="#fff"/>
</svg>
