<svg xmlns="http://www.w3.org/2000/svg" width="23" height="15.75" viewBox="0 0 23 15.75">
  <path id="Vector" d="M16.931,3.938H6.069a.972.972,0,0,0-.958.984v5.906a.972.972,0,0,0,.958.984H16.931a.972.972,0,0,0,.958-.984V4.922A.972.972,0,0,0,16.931,3.938ZM16.611,10.5H6.389V5.25H16.611Zm5.111-3.937H23V1.969A1.943,1.943,0,0,0,21.083,0H1.917A1.943,1.943,0,0,0,0,1.969V6.563H1.278a1.313,1.313,0,0,1,0,2.625H0v4.594A1.943,1.943,0,0,0,1.917,15.75H21.083A1.943,1.943,0,0,0,23,13.781V9.188H21.722a1.313,1.313,0,0,1,0-2.625Zm0,3.938v3.281a.648.648,0,0,1-.639.656H1.917a.648.648,0,0,1-.639-.656V10.5a2.626,2.626,0,0,0,0-5.25V1.969a.648.648,0,0,1,.639-.656H21.083a.648.648,0,0,1,.639.656V5.25a2.626,2.626,0,0,0,0,5.25Z" fill="#fff"/>
</svg>
