<svg xmlns="http://www.w3.org/2000/svg" width="22" height="19.25" viewBox="0 0 22 19.25">
  <path id="Vector" d="M0,2.063V17.188A2.062,2.062,0,0,0,2.063,19.25H19.938A2.062,2.062,0,0,0,22,17.188V2.063A2.062,2.062,0,0,0,19.938,0H2.063A2.062,2.062,0,0,0,0,2.063Zm13.75-.687V5.958H8.25V1.375Zm6.875,10.542h-5.5V7.333h5.5Zm-6.875,0H8.25V7.333h5.5ZM1.375,7.333h5.5v4.583h-5.5Zm5.5-5.958V5.958h-5.5v-3.9a.687.687,0,0,1,.688-.687Zm-5.5,15.813v-3.9h5.5v4.583H2.063A.687.687,0,0,1,1.375,17.188Zm6.875.688V13.292h5.5v4.583Zm6.875,0V13.292h5.5v3.9a.687.687,0,0,1-.687.688Zm5.5-11.917h-5.5V1.375h4.813a.687.687,0,0,1,.688.688v3.9Z" fill="#fff"/>
</svg>
