<svg xmlns="http://www.w3.org/2000/svg" width="25" height="15" viewBox="0 0 25 15">
  <path id="Vector" d="M.625,9.991A.625.625,0,1,0,0,9.366.627.627,0,0,0,.625,9.991ZM24.684,2.5l-4.433.008-2-1.948a1.859,1.859,0,0,0-1.324-.55H12.982A1.857,1.857,0,0,0,11.877.4,1.881,1.881,0,0,0,10.733,0H8.018A1.875,1.875,0,0,0,6.694.55L4.741,2.5H.312A.313.313,0,0,0,0,2.815V3.44a.313.313,0,0,0,.312.312H2.5v7.492H.312A.313.313,0,0,0,0,11.556v.625a.313.313,0,0,0,.312.312H2.5a1.245,1.245,0,0,0,1.246-1.238h1.3L8.225,14.3a3.134,3.134,0,0,0,3.945-.008l.281.242a2.084,2.084,0,0,0,2.925-.3l.855-1.05a1.876,1.876,0,0,0,2.343-.469l.371-.457a1.872,1.872,0,0,0,.41-1h1.9A1.247,1.247,0,0,0,22.5,12.493h2.187A.313.313,0,0,0,25,12.181v-.625a.313.313,0,0,0-.312-.312H22.5V3.76l2.187-.008A.313.313,0,0,0,25,3.44V2.815a.317.317,0,0,0-.316-.312Zm-6.71,8.964-.371.457a.624.624,0,0,1-.879.09l-.7-.562-1.621,1.991a.826.826,0,0,1-1.148.133l-1.2-1.019-.406.5a1.876,1.876,0,0,1-2.6.308L5.546,10h-1.8V3.748H5.257L7.573,1.433a.627.627,0,0,1,.441-.183h2.714c.035.086.012.027.043.113l-2.3,2.116a2.678,2.678,0,1,0,3.621,3.947l.89-.816,4.905,3.978A.629.629,0,0,1,17.974,11.467ZM21.247,10H19.013a1.98,1.98,0,0,0-.344-.383L13.908,5.755l1.109-1.019a.625.625,0,1,0-.844-.921L11.24,6.5a1.476,1.476,0,0,1-2.019-.086A1.43,1.43,0,0,1,9.307,4.4l3.246-2.975a.628.628,0,0,1,.422-.164h3.945a.624.624,0,0,1,.445.187l2.371,2.307h1.511Zm3.125-1.257A.625.625,0,1,0,25,9.37.627.627,0,0,0,24.371,8.745Z" fill="#fff"/>
</svg>
