<svg xmlns="http://www.w3.org/2000/svg" width="22" height="23" viewBox="0 0 22 23">
  <path id="Vector" d="M11,0A11.256,11.256,0,0,0,0,11.5,11.256,11.256,0,0,0,11,23,11.256,11.256,0,0,0,22,11.5,11.256,11.256,0,0,0,11,0Zm8.569,7.048H15.91a13.849,13.849,0,0,0-1.916-5.059A9.765,9.765,0,0,1,19.569,7.048ZM14.9,11.5a22.9,22.9,0,0,1-.191,2.968H7.287a23.185,23.185,0,0,1,0-5.935h7.425A22.9,22.9,0,0,1,14.9,11.5ZM11,1.484c1.193,0,2.723,2.045,3.464,5.565H7.536C8.277,3.529,9.807,1.484,11,1.484Zm-2.994.505A13.862,13.862,0,0,0,6.09,7.048H2.431A9.765,9.765,0,0,1,8.006,1.989ZM1.419,11.5a10.37,10.37,0,0,1,.43-2.968H5.864A24.569,24.569,0,0,0,5.677,11.5a23.7,23.7,0,0,0,.186,2.968H1.85A10.37,10.37,0,0,1,1.419,11.5Zm1.011,4.452H6.09a13.849,13.849,0,0,0,1.916,5.059A9.765,9.765,0,0,1,2.431,15.952ZM11,21.516c-1.193,0-2.723-2.045-3.464-5.565h6.928c-.741,3.52-2.271,5.565-3.464,5.565Zm2.994-.505a13.862,13.862,0,0,0,1.916-5.059h3.659A9.765,9.765,0,0,1,13.994,21.011Zm2.142-6.543a24.569,24.569,0,0,0,.186-2.968,23.7,23.7,0,0,0-.186-2.968H20.15a10.451,10.451,0,0,1,0,5.935Z" fill="#fff"/>
</svg>
