<svg xmlns="http://www.w3.org/2000/svg" width="18" height="21" viewBox="0 0 18 21">
  <path id="Vector" d="M15.425,12.645l.96-2.568a.654.654,0,0,0-.6-.89H14.046a5.307,5.307,0,0,0,.1-.984,4.75,4.75,0,0,0-.088-.865c1.627-.4,2.66-.993,2.66-1.649,0-.677-1.085-1.28-2.784-1.682A10.769,10.769,0,0,0,12.271.5,1.282,1.282,0,0,0,11.254,0c-.382,0-.494.1-1.679.705a1.272,1.272,0,0,1-1.149,0C7.228.094,7.124,0,6.746,0A1.283,1.283,0,0,0,5.733.5,10.769,10.769,0,0,0,4.074,4c-1.7.4-2.788,1.009-2.788,1.686,0,.66,1.033,1.251,2.66,1.649a4.75,4.75,0,0,0-.088.865,5.307,5.307,0,0,0,.1.984H2.262a.655.655,0,0,0-.591.915l1.037,2.469A5.515,5.515,0,0,0,0,17.325v1.838A1.821,1.821,0,0,0,1.8,21H16.2A1.821,1.821,0,0,0,18,19.163V17.325A5.521,5.521,0,0,0,15.425,12.645ZM5.143,8.2a2.857,2.857,0,0,1,.024-.324c.052.033.2.135.233.221a3.042,3.042,0,0,0,.663,1.37c.321.3,1.888,1.029,2.571-1.025a.391.391,0,0,1,.735,0c.643,1.944,2.166,1.411,2.571,1.025A3,3,0,0,0,12.6,8.1c.028-.086.177-.189.233-.221a2.857,2.857,0,0,1,.024.324A3.9,3.9,0,0,1,9,12.141,3.908,3.908,0,0,1,5.143,8.2Zm-.028-3.1A10.738,10.738,0,0,1,6.742,1.313C7.9,1.9,8.257,2.153,9,2.153s1.113-.258,2.258-.841l0,0a10.711,10.711,0,0,1,1.623,3.79,12.211,12.211,0,0,1,2.049.582A16.773,16.773,0,0,1,9,6.563a16.773,16.773,0,0,1-5.934-.874A12.553,12.553,0,0,1,5.115,5.106ZM1.8,19.688a.518.518,0,0,1-.514-.525V17.325a4.172,4.172,0,0,1,2.065-3.618l.988-.582L3.238,10.5H4.4c.189.394,2.583,4.45,2.583,4.45L5.742,19.688Zm5.271,0,1.286-4.922-.88-1.575A4.949,4.949,0,0,0,9,13.453a4.929,4.929,0,0,0,1.523-.262l-.88,1.575,1.286,4.922Zm9.643-.525a.518.518,0,0,1-.514.525H12.258L11.021,14.95s2.395-4.056,2.583-4.45H14.85l-1,2.691.9.57a4.192,4.192,0,0,1,1.965,3.564Z" fill="#fff"/>
</svg>
