<svg xmlns="http://www.w3.org/2000/svg" width="22" height="22" viewBox="0 0 22 22">
  <path id="Vector" d="M5.5,16.5a1.375,1.375,0,1,0-1.375-1.375A1.375,1.375,0,0,0,5.5,16.5Zm11,0a1.375,1.375,0,1,0-1.375-1.375A1.375,1.375,0,0,0,16.5,16.5Zm4.469-11h-.344V3.438C20.625,1.513,16.362,0,11,0S1.375,1.513,1.375,3.438V5.5H1.031A1.031,1.031,0,0,0,0,6.531V9.969A1.032,1.032,0,0,0,1.031,11h.344v6.875A1.375,1.375,0,0,0,2.75,19.25v1.375A1.375,1.375,0,0,0,4.125,22H6.188a1.375,1.375,0,0,0,1.375-1.375V19.25h6.875v1.375A1.375,1.375,0,0,0,15.813,22h2.063a1.375,1.375,0,0,0,1.375-1.375V19.25a1.375,1.375,0,0,0,1.375-1.375V11h.344A1.032,1.032,0,0,0,22,9.969V6.531A1.031,1.031,0,0,0,20.969,5.5ZM6.188,20.625H4.125V19.25H6.188Zm11.688,0H15.813V19.25h2.063Zm1.375-2.75H2.75v-5.5h16.5Zm0-6.875H2.75V5.5h16.5Zm0-6.875H2.749V3.451c.144-.572,2.9-2.076,8.251-2.076s8.108,1.5,8.251,2.076Z" fill="#fff"/>
</svg>
